<svg width="200" height="200" viewBox="0 0 200 200" fill="none" xmlns="http://www.w3.org/2000/svg">
<g clip-path="url(#clip0_137_805)">
<path d="M76.2087 160.063C78.4269 176.838 82.915 188.637 86.9633 197.918C83.8884 192.535 78.6118 180.372 76.2087 160.063C74.3756 146.202 74.0926 128.943 76.8888 106.901C79.126 88.3052 83.4965 66.649 90.9946 41.6644C85.6727 60.0759 81.8932 76.382 79.3324 90.8758C78.3417 96.483 77.5334 101.819 76.8888 106.901C74.2691 128.675 74.5745 146.253 76.2087 160.063Z" fill="black"/>
<path d="M89.6312 133.849C87.6479 132.449 83.4013 128.809 82.2812 125.449C86.3937 126.937 89.1937 132.187 89.6312 133.849C89.4741 132.607 89.3134 131.123 89.1717 129.499C82.574 118.809 87.5457 110.737 90.8562 108.037C92.2124 110.241 93.774 117.619 89.1717 129.499C89.3134 131.123 89.4741 132.607 89.6312 133.849Z" fill="black"/>
<path d="M116.931 83.8867C113.46 87.6784 107.744 97.8517 112.644 108.212C115.823 103.778 121.131 92.7067 116.931 83.8867Z" fill="black"/>
<path d="M147.819 134.637C147.323 130.699 148.974 122.194 159.544 119.674C158.144 127.724 151.144 133.003 147.819 134.637Z" fill="black"/>
<path d="M154.294 143.124C157.502 139.887 166.054 133.972 174.594 136.212C164.724 148.042 156.948 145.749 154.294 143.124Z" fill="black"/>
<path d="M130.931 159.137C133.615 156.512 141.046 153.029 149.306 160.099C141.116 167.029 133.644 162.345 130.931 159.137Z" fill="black"/>
<path d="M140.994 123.787C135.714 127.87 125.016 138.19 124.456 146.8C129.152 141.841 139.034 130.297 140.994 123.787Z" fill="black"/>
<path d="M165.931 87.4738C167.623 82.9238 174.576 74.4188 188.856 76.7988C180.806 87.7182 170.219 88.4652 165.931 87.4738Z" fill="black"/>
<path d="M163.569 62.8869C163.831 56.7327 166.999 43.4969 177.569 39.7869C176.379 57.5669 167.739 62.5952 163.569 62.8869Z" fill="black"/>
<path d="M149.744 72.9494C149.219 69.1577 149.271 61.0494 153.681 58.9494C154.644 61.5744 155.204 68.0494 149.744 72.9494Z" fill="black"/>
<path d="M117.018 59.7369C119.381 56.0036 126.521 49.1144 136.181 51.4244C131.211 61.2944 121.335 61.0786 117.018 59.7369Z" fill="black"/>
<path d="M121.743 43.5494C121.014 36.5494 122.146 21.7794 132.506 18.6994C134.186 33.7494 126.031 41.5369 121.743 43.5494Z" fill="black"/>
<path d="M96.281 13.2744C91.9935 17.7952 85.0285 29.3919 91.4685 39.6119C95.2892 35.7327 101.601 25.0344 96.281 13.2744Z" fill="black"/>
<path d="M57.7812 74.0869C53.1729 72.7452 45.7062 65.9669 52.7062 49.5869C60.5463 53.0169 59.3562 67.3494 57.7812 74.0869Z" fill="black"/>
<path d="M65.1531 89.9221C64.2982 81.8265 64.1498 70.5125 68.3687 69.7994C69.5499 73.327 70.5606 82.2903 65.1531 89.9221Z" fill="black"/>
<path d="M49.3813 83.9746C53.6133 84.056 62.2507 86.6656 65.1836 96.1544C60.3953 94.5582 52.6537 87.3695 49.3813 83.9746Z" fill="black"/>
<path d="M54.2811 118.449C51.4519 122.299 47.4036 132.327 53.8436 141.637C55.7393 135.891 58.4808 123.209 54.2811 118.449Z" fill="black"/>
<path d="M19.7185 77.5869C18.9893 83.5369 19.8935 96.4869 29.3435 100.687C34.8731 91.7969 25.2308 81.5827 19.7185 77.5869Z" fill="black"/>
<path d="M56.2063 164.999C52.8522 162.199 44.6913 157.614 38.8813 161.674C41.8855 164.037 49.5563 168.009 56.2063 164.999Z" fill="black"/>
<path d="M31.0885 143.861C23.0163 142.784 12.4448 139.334 11.1436 130.961C17.5569 130.432 30.5245 132.271 31.0885 143.861Z" fill="black"/>
<path d="M79.3324 90.8758L78.5742 90.7418V90.7418L79.3324 90.8758ZM114.131 53.3494L113.568 52.824V52.824L114.131 53.3494ZM128.509 31.8997C128.648 31.4976 128.434 31.0595 128.032 30.9212C127.629 30.783 127.191 30.9969 127.053 31.3991L127.781 31.6494L128.509 31.8997ZM87.1774 200.312C87.3503 200.701 87.8054 200.876 88.194 200.703C88.5825 200.53 88.7573 200.075 88.5844 199.686L87.8809 199.999L87.1774 200.312ZM86.9633 197.918L87.6691 197.61V197.61L86.9633 197.918ZM90.9946 41.6644L91.7343 41.8782V41.8782L90.9946 41.6644ZM92.8193 38.1678C92.9399 37.76 92.7071 37.3316 92.2993 37.211C91.8915 37.0904 91.4631 37.3232 91.3425 37.731L92.0809 37.9494L92.8193 38.1678ZM134.431 100.599L134.95 101.169L134.986 101.136L135.017 101.099L134.431 100.599ZM92.4192 167.47C92.0439 167.67 91.9017 168.136 92.1017 168.511C92.3016 168.887 92.7679 169.029 93.1433 168.829L92.7812 168.149L92.4192 167.47ZM141.431 144.349L141.18 143.621V143.621L141.431 144.349ZM154.6 144.25C154.932 144.516 155.417 144.462 155.683 144.13C155.948 143.798 155.894 143.313 155.562 143.048L155.081 143.649L154.6 144.25ZM109.862 129.966C109.844 130.391 110.173 130.75 110.598 130.768C111.023 130.787 111.382 130.458 111.401 130.033L110.631 129.999L109.862 129.966ZM27.0055 93.3381C26.861 92.9381 26.4197 92.7309 26.0197 92.8754C25.6197 93.0198 25.4126 93.4612 25.557 93.8611L26.2812 93.5996L27.0055 93.3381ZM95.3642 72.7778C95.0764 73.091 95.097 73.5781 95.4101 73.8658C95.7233 74.1535 96.2104 74.133 96.4981 73.8198L95.9312 73.2988L95.3642 72.7778ZM30.0772 141.48C29.8457 141.124 29.3689 141.022 29.0121 141.253C28.6554 141.485 28.5537 141.962 28.7851 142.318L29.4312 141.899L30.0772 141.48ZM89.6312 133.849L89.1872 134.478L90.6145 135.486L90.3952 133.753L89.6312 133.849ZM82.2812 125.449L82.5432 124.725L81.048 124.184L81.5508 125.693L82.2812 125.449ZM90.8562 108.037L91.5121 107.633L91.0512 106.884L90.3696 107.44L90.8562 108.037ZM116.931 83.8867L117.626 83.5557L117.135 82.5237L116.363 83.3668L116.931 83.8867ZM112.644 108.212L111.948 108.541L112.507 109.724L113.269 108.66L112.644 108.212ZM147.819 134.637L147.055 134.733L147.19 135.804L148.158 135.328L147.819 134.637ZM159.544 119.674L160.302 119.806L160.503 118.654L159.365 118.925L159.544 119.674ZM154.294 143.124L153.747 142.582L153.204 143.13L153.752 143.672L154.294 143.124ZM174.594 136.212L175.185 136.705L175.961 135.774L174.789 135.467L174.594 136.212ZM130.931 159.137L130.393 158.586L129.881 159.087L130.343 159.634L130.931 159.137ZM149.306 160.099L149.804 160.687L150.494 160.103L149.807 159.514L149.306 160.099ZM140.994 123.787L141.731 124.009L142.424 121.707L140.522 123.178L140.994 123.787ZM124.456 146.8L123.688 146.75L123.549 148.877L125.015 147.329L124.456 146.8ZM165.931 87.4738L165.209 87.2054L164.904 88.0266L165.758 88.224L165.931 87.4738ZM188.856 76.7988L189.476 77.2557L190.221 76.2456L188.983 76.0392L188.856 76.7988ZM163.569 62.8869L162.799 62.8541L162.763 63.7152L163.622 63.655L163.569 62.8869ZM177.569 39.7869L178.337 39.8383L178.415 38.6738L177.314 39.0604L177.569 39.7869ZM149.744 72.9494L148.981 73.055L149.18 74.4902L150.258 73.5225L149.744 72.9494ZM153.681 58.9494L154.404 58.6843L154.113 57.8909L153.35 58.2542L153.681 58.9494ZM117.018 59.7369L116.368 59.3252L115.831 60.174L116.79 60.4722L117.018 59.7369ZM136.181 51.4244L136.869 51.7707L137.306 50.9018L136.36 50.6755L136.181 51.4244ZM121.743 43.5494L120.978 43.6292L121.09 44.7068L122.071 44.2464L121.743 43.5494ZM132.506 18.6994L133.271 18.614L133.169 17.699L132.287 17.9613L132.506 18.6994ZM96.281 13.2744L96.9825 12.9571L96.5104 11.9135L95.7223 12.7446L96.281 13.2744ZM91.4685 39.6119L90.817 40.0224L91.3351 40.8446L92.017 40.1522L91.4685 39.6119ZM57.7812 74.0869L57.566 74.8262L58.3461 75.0533L58.531 74.2622L57.7812 74.0869ZM52.7062 49.5869L53.0148 48.8815L52.3033 48.5702L51.9982 49.2843L52.7062 49.5869ZM68.3687 69.7994L69.0988 69.5549L68.8897 68.9304L68.2403 69.0402L68.3687 69.7994ZM49.3813 83.9746L49.3962 83.2048L47.5353 83.169L48.827 84.509L49.3813 83.9746ZM65.1836 96.1544L65.9192 95.927V95.927L65.1836 96.1544ZM54.2811 118.449L54.8584 117.94L54.2263 117.223L53.6606 117.993L54.2811 118.449ZM53.8436 141.637L53.2103 142.075L54.0902 143.347L54.5748 141.878L53.8436 141.637ZM19.7185 77.5869L20.1704 76.9635L19.113 76.197L18.9542 77.4933L19.7185 77.5869ZM29.3435 100.687L29.0307 101.391L29.6433 101.663L29.9973 101.094L29.3435 100.687ZM56.2063 164.999L56.5239 165.701L57.642 165.195L56.6998 164.408L56.2063 164.999ZM38.8813 161.674L38.4403 161.043L37.5893 161.638L38.4054 162.28L38.8813 161.674ZM31.0885 143.861L30.9867 144.625L31.9025 144.747L31.8576 143.824L31.0885 143.861ZM11.1436 130.961L11.0802 130.194L10.2556 130.262L10.3827 131.079L11.1436 130.961ZM79.3324 90.8758L79.8977 91.3986C88.2309 82.3895 106.855 62.2733 114.694 53.8748L114.131 53.3494L113.568 52.824C105.727 61.2256 87.0997 81.3445 78.7671 90.3529L79.3324 90.8758ZM114.131 53.3494L114.694 53.8748C122.618 45.385 127.196 35.7205 128.509 31.8997L127.781 31.6494L127.053 31.3991C125.8 35.045 121.324 44.5138 113.568 52.824L114.131 53.3494ZM87.8809 199.999L88.5844 199.686C88.2825 199.008 87.977 198.316 87.6691 197.61L86.9633 197.918L86.2575 198.226C86.5673 198.936 86.8743 199.631 87.1774 200.312L87.8809 199.999ZM86.9633 197.918L87.6691 197.61C83.6375 188.368 79.1776 176.641 76.972 159.962L76.2087 160.063L75.4453 160.164C77.6762 177.035 82.1924 188.907 86.2575 198.226L86.9633 197.918ZM76.2087 160.063L76.972 159.962C75.1488 146.175 74.8637 128.983 77.6526 106.998L76.8888 106.901L76.1249 106.804C73.3215 128.903 73.6025 146.229 75.4453 160.164L76.2087 160.063ZM76.8888 106.901L77.6526 106.998C78.2956 101.929 79.102 96.6052 80.0907 91.0098L79.3324 90.8758L78.5742 90.7418C77.5814 96.3608 76.7712 101.709 76.1249 106.804L76.8888 106.901ZM79.3324 90.8758L80.0907 91.0098C82.6461 76.5461 86.4191 60.2669 91.7343 41.8782L90.9946 41.6644L90.2548 41.4506C84.9264 59.885 81.1403 76.2178 78.5742 90.7418L79.3324 90.8758ZM90.9946 41.6644L91.7343 41.8782C92.089 40.6508 92.4507 39.4141 92.8193 38.1678L92.0809 37.9494L91.3425 37.731C90.973 38.9803 90.6105 40.2201 90.2548 41.4506L90.9946 41.6644ZM86.9633 197.918L87.6319 197.536C84.6124 192.25 79.3653 180.187 76.9733 159.973L76.2087 160.063L75.444 160.154C77.8582 180.556 83.1643 192.819 86.2946 198.3L86.9633 197.918ZM76.2087 160.063L76.9733 159.973C75.3468 146.227 75.0403 128.711 77.6533 106.993L76.8888 106.901L76.1243 106.809C73.4979 128.639 73.8021 146.278 75.444 160.154L76.2087 160.063ZM76.8888 106.901L77.6533 106.993C79.8847 88.4449 84.2455 66.832 91.7321 41.8857L90.9946 41.6644L90.257 41.4431C82.7475 66.466 78.3672 88.1656 76.1243 106.809L76.8888 106.901ZM86.1313 195.974L86.8978 196.048C88.6362 177.969 100.975 132.08 134.95 101.169L134.431 100.599L133.913 100.03C99.5674 131.279 87.1265 177.58 85.3649 195.901L86.1313 195.974ZM134.431 100.599L135.017 101.099C142.479 92.3551 159.205 71.8678 166.243 60.0433L165.581 59.6494L164.92 59.2556C157.958 70.951 141.317 91.3437 133.846 100.1L134.431 100.599ZM132.681 102.699L133.059 103.37C139.465 99.7597 155.254 91.5771 167.22 87.6814L166.981 86.9492L166.743 86.217C154.628 90.1614 138.731 98.4054 132.303 102.028L132.681 102.699ZM92.7812 168.149L93.1433 168.829C99.3788 165.507 109.505 160.26 119.085 155.495C128.688 150.718 137.68 146.457 141.682 145.077L141.431 144.349L141.18 143.621C137.063 145.041 127.971 149.355 118.4 154.116C108.806 158.888 98.6671 164.141 92.4192 167.47L92.7812 168.149ZM141.431 144.349L141.682 145.077C145.673 143.701 148.701 143.313 150.844 143.369C153.019 143.425 154.205 143.934 154.6 144.25L155.081 143.649L155.562 143.048C154.791 142.431 153.212 141.89 150.884 141.829C148.523 141.768 145.31 142.197 141.18 143.621L141.431 144.349ZM110.631 129.999L111.401 130.033C111.575 126.021 111.994 119.67 112.683 113.663C113.027 110.659 113.438 107.752 113.917 105.27C114.4 102.771 114.941 100.765 115.527 99.5288L114.831 99.1992L114.135 98.8696C113.461 100.293 112.891 102.461 112.405 104.978C111.916 107.512 111.499 110.463 111.153 113.488C110.459 119.538 110.038 125.927 109.862 129.966L110.631 129.999ZM149.831 82.049L150.597 81.9698C150.424 80.3016 150.252 77.6381 150.295 75.0883C150.316 73.8131 150.392 72.5815 150.544 71.5243C150.699 70.4487 150.924 69.6273 151.204 69.123L150.531 68.749L149.858 68.3751C149.438 69.1308 149.182 70.179 149.02 71.3047C148.855 72.4488 148.777 73.7503 148.755 75.0623C148.711 77.6866 148.888 80.4131 149.065 82.1283L149.831 82.049ZM155.081 92.5488L154.875 93.2907C155.938 93.5861 157.669 94.0276 159.42 94.3961C161.15 94.7602 162.972 95.0688 164.181 95.0688V94.2988V93.5288C163.15 93.5288 161.472 93.2541 159.737 92.8891C158.023 92.5284 156.324 92.0949 155.287 91.8069L155.081 92.5488ZM75.2811 124.749L76.0115 124.506C70.9982 109.466 60.3285 77.6661 57.802 70.9289L57.0811 71.1992L56.3601 71.4696C58.8736 78.1723 69.5306 109.933 74.5506 124.993L75.2811 124.749ZM62.5062 165.7L63.1847 165.336C58.0539 155.774 49.9102 140.273 42.5949 125.905C35.2666 111.511 28.8051 98.3217 27.0055 93.3381L26.2812 93.5996L25.557 93.8611C27.3974 98.9575 33.9151 112.251 41.2226 126.604C48.5431 140.982 56.6919 156.492 61.8278 166.064L62.5062 165.7ZM117.981 154.499L117.734 155.228L136.284 161.528L136.531 160.799L136.779 160.07L118.229 153.77L117.981 154.499ZM141.081 144.699L141.727 145.119L150.827 131.119L150.181 130.699L149.535 130.28L140.435 144.28L141.081 144.699ZM117.981 155.549L118.602 156.005L131.202 138.855L130.581 138.399L129.961 137.944L117.361 155.094L117.981 155.549ZM95.9312 73.2988L96.4981 73.8198C98.4363 71.7106 101.94 68.6007 106.103 65.8473C110.275 63.0884 115.036 60.7359 119.496 60.0601L119.381 59.2988L119.266 58.5375C114.486 59.2617 109.506 61.751 105.254 64.5628C100.994 67.3803 97.3927 70.5703 95.3642 72.7778L95.9312 73.2988ZM53.2314 147.499L54.0003 147.54L54.7003 134.59L53.9314 134.549L53.1626 134.507L52.4626 147.457L53.2314 147.499ZM62.5061 165.524L62.5386 164.755L50.1136 164.23L50.0811 164.999L50.0485 165.768L62.4735 166.293L62.5061 165.524ZM80.1812 178.649L80.56 177.979C72.6514 173.51 60.5283 165.168 50.0992 157.518C44.8887 153.696 40.1116 150.054 36.5069 147.166C34.7039 145.721 33.1998 144.468 32.0834 143.479C31.5248 142.984 31.0691 142.559 30.7238 142.212C30.3675 141.855 30.1639 141.614 30.0772 141.48L29.4312 141.899L28.7851 142.318C28.9653 142.596 29.2674 142.932 29.6326 143.299C30.0089 143.677 30.4904 144.125 31.0617 144.631C32.2051 145.645 33.7313 146.915 35.5438 148.367C39.1704 151.274 43.9659 154.929 49.1884 158.76C59.6253 166.415 71.8097 174.803 79.8023 179.32L80.1812 178.649ZM96.2813 158.349L97.0467 158.266C96.6936 155.028 95.8833 149.78 94.5967 144.525C93.3167 139.297 91.5406 133.955 89.2134 130.609L88.5813 131.049L87.9492 131.489C90.102 134.584 91.8259 139.683 93.1009 144.891C94.3693 150.072 95.169 155.253 95.5158 158.433L96.2813 158.349ZM95.9313 73.9992L96.4983 74.5202C98.4473 72.3993 101.959 69.1115 106.122 66.1852C110.298 63.2498 115.051 60.7336 119.496 60.0601L119.381 59.2988L119.266 58.5375C114.471 59.264 109.483 61.9398 105.236 64.9253C100.976 67.9201 97.382 71.2825 95.3643 73.4782L95.9313 73.9992ZM89.6312 133.849L90.0753 133.22C89.1193 132.545 87.5996 131.317 86.1871 129.85C84.7601 128.368 83.5163 126.719 83.0117 125.206L82.2812 125.449L81.5508 125.693C82.1662 127.539 83.6057 129.39 85.0779 130.918C86.5645 132.462 88.1598 133.753 89.1872 134.478L89.6312 133.849ZM82.2812 125.449L82.0193 126.173C83.8713 126.843 85.488 128.391 86.7165 130.043C87.9465 131.697 88.7002 133.337 88.8866 134.045L89.6312 133.849L90.3759 133.653C90.1248 132.699 89.2597 130.882 87.9523 129.124C86.6433 127.364 84.8037 125.543 82.5432 124.725L82.2812 125.449ZM89.6312 133.849L90.3952 133.753C90.2393 132.521 90.0796 131.046 89.9388 129.432L89.1717 129.499L88.4046 129.566C88.5471 131.199 88.7088 132.693 88.8673 133.946L89.6312 133.849ZM89.1717 129.499L89.9388 129.432C89.6035 125.591 89.3768 120.986 89.5547 116.993C89.6438 114.995 89.8332 113.174 90.1532 111.687C90.4791 110.173 90.918 109.119 91.4286 108.552L90.8562 108.037L90.2839 107.522C89.4933 108.4 88.9869 109.787 88.6477 111.363C88.3026 112.966 88.1073 114.882 88.0163 116.924C87.8341 121.011 88.0664 125.691 88.4046 129.566L89.1717 129.499ZM90.8562 108.037L90.2004 108.44C90.776 109.376 91.4934 111.612 91.4784 115.136C91.4635 118.636 90.725 123.358 88.4537 129.221L89.1717 129.499L89.8897 129.777C92.2207 123.76 93.0026 118.852 93.0184 115.143C93.0341 111.457 92.2927 108.902 91.5121 107.633L90.8562 108.037ZM90.8562 108.037L90.3696 107.44C88.5911 108.89 86.42 111.73 85.5472 115.602C84.6684 119.502 85.1181 124.397 88.5164 129.903L89.1717 129.499L89.8269 129.095C86.6276 123.911 86.2643 119.425 87.0495 115.941C87.8409 112.43 89.8108 109.883 91.3429 108.633L90.8562 108.037ZM116.931 83.8867L116.363 83.3668C114.555 85.3421 112.195 88.936 110.909 93.3716C109.619 97.8203 109.4 103.154 111.948 108.541L112.644 108.212L113.34 107.882C110.988 102.91 111.177 97.9765 112.388 93.8006C113.603 89.6116 115.837 86.223 117.499 84.4066L116.931 83.8867ZM112.644 108.212L113.269 108.66C114.906 106.379 117.071 102.42 118.298 97.8957C119.523 93.3762 119.836 88.1955 117.626 83.5557L116.931 83.8867L116.236 84.2178C118.227 88.398 117.985 93.163 116.812 97.4927C115.639 101.818 113.561 105.611 112.018 107.763L112.644 108.212ZM147.819 134.637L148.583 134.541C148.353 132.717 148.621 129.777 150.201 127.005C151.764 124.261 154.64 121.635 159.722 120.423L159.544 119.674L159.365 118.925C153.878 120.233 150.643 123.12 148.863 126.243C147.099 129.338 146.789 132.619 147.055 134.733L147.819 134.637ZM147.819 134.637L148.158 135.328C149.904 134.47 152.562 132.686 154.968 130.085C157.377 127.481 159.57 124.018 160.302 119.806L159.544 119.674L158.785 119.542C158.118 123.38 156.11 126.582 153.838 129.039C151.563 131.498 149.059 133.17 147.479 133.946L147.819 134.637ZM154.294 143.124L154.841 143.666C156.384 142.109 159.246 139.878 162.757 138.317C166.268 136.757 170.355 135.896 174.398 136.957L174.594 136.212L174.789 135.467C170.293 134.288 165.834 135.264 162.132 136.91C158.43 138.556 155.412 140.902 153.747 142.582L154.294 143.124ZM154.294 143.124L153.752 143.672C155.255 145.158 158.111 146.466 161.863 145.848C165.613 145.231 170.176 142.709 175.185 136.705L174.594 136.212L174.003 135.718C169.142 141.545 164.882 143.791 161.613 144.329C158.346 144.866 155.986 143.715 154.835 142.577L154.294 143.124ZM130.931 159.137L131.47 159.687C132.699 158.484 135.069 157.045 138.102 156.749C141.105 156.455 144.823 157.276 148.806 160.684L149.306 160.099L149.807 159.514C145.529 155.853 141.402 154.879 137.953 155.216C134.534 155.55 131.846 157.164 130.393 158.586L130.931 159.137ZM130.931 159.137L130.343 159.634C131.786 161.34 134.472 163.423 137.9 164.172C141.373 164.931 145.532 164.302 149.804 160.687L149.306 160.099L148.809 159.511C144.891 162.827 141.218 163.321 138.229 162.668C135.196 162.005 132.789 160.142 131.519 158.64L130.931 159.137ZM140.994 123.787L140.522 123.178C137.845 125.249 133.806 128.89 130.359 133.109C126.935 137.299 123.984 142.191 123.688 146.75L124.456 146.8L125.224 146.85C125.488 142.798 128.166 138.226 131.551 134.083C134.913 129.969 138.863 126.408 141.465 124.396L140.994 123.787ZM124.456 146.8L125.015 147.329C127.378 144.834 131.041 140.688 134.362 136.343C137.661 132.029 140.706 127.414 141.731 124.009L140.994 123.787L140.256 123.565C139.321 126.67 136.446 131.083 133.139 135.408C129.856 139.702 126.23 143.807 123.897 146.27L124.456 146.8ZM165.931 87.4738L166.653 87.7421C168.238 83.4792 174.872 75.2487 188.73 77.5583L188.856 76.7988L188.983 76.0392C174.28 73.5888 167.008 82.3684 165.209 87.2054L165.931 87.4738ZM165.931 87.4738L165.758 88.224C170.313 89.2774 181.225 88.4473 189.476 77.2557L188.856 76.7988L188.236 76.3419C180.387 86.9892 170.124 87.653 166.105 86.7236L165.931 87.4738ZM163.569 62.8869L164.338 62.9197C164.465 59.9285 165.304 55.1844 167.399 50.7493C169.494 46.3155 172.801 42.2762 177.824 40.5135L177.569 39.7869L177.314 39.0604C171.766 41.0076 168.204 45.4412 166.007 50.0914C163.811 54.7403 162.934 59.6911 162.799 62.8541L163.569 62.8869ZM163.569 62.8869L163.622 63.655C168.312 63.3271 177.131 57.8493 178.337 39.8383L177.569 39.7869L176.8 39.7355C175.626 57.2845 167.167 61.8634 163.515 62.1188L163.569 62.8869ZM149.744 72.9494L150.506 72.8438C150.252 71.0061 150.139 68.1157 150.619 65.4518C151.109 62.742 152.162 60.5258 154.012 59.6446L153.681 58.9494L153.35 58.2542C150.79 59.473 149.612 62.361 149.104 65.1783C148.587 68.0415 148.71 71.1011 148.981 73.055L149.744 72.9494ZM153.681 58.9494L152.958 59.2145C153.849 61.6429 154.385 67.7494 149.229 72.3763L149.744 72.9494L150.258 73.5225C156.022 68.3494 155.439 61.5059 154.404 58.6843L153.681 58.9494ZM117.018 59.7369L117.669 60.1487C118.791 58.3759 121.079 55.8127 124.248 53.9811C127.403 52.1581 131.402 51.0732 136.002 52.1733L136.181 51.4244L136.36 50.6755C131.3 49.4656 126.899 50.6703 123.478 52.6477C120.071 54.6166 117.608 57.3646 116.368 59.3252L117.018 59.7369ZM117.018 59.7369L116.79 60.4722C119.069 61.1807 122.77 61.584 126.562 60.5267C130.383 59.4613 134.278 56.915 136.869 51.7707L136.181 51.4244L135.493 51.0781C133.114 55.8038 129.586 58.0846 126.148 59.0433C122.68 60.0103 119.284 59.6348 117.247 59.0016L117.018 59.7369ZM121.743 43.5494L122.509 43.4696C122.152 40.0426 122.253 34.7068 123.704 29.8758C125.156 25.0381 127.903 20.8711 132.725 19.4375L132.506 18.6994L132.287 17.9613C126.749 19.6078 123.75 24.3657 122.229 29.433C120.706 34.5071 120.605 40.0563 120.978 43.6292L121.743 43.5494ZM121.743 43.5494L122.071 44.2464C126.639 42.1019 134.99 34.0102 133.271 18.614L132.506 18.6994L131.741 18.7848C133.382 33.4886 125.423 40.9719 121.416 42.8524L121.743 43.5494ZM96.281 13.2744L95.7223 12.7446C93.5127 15.0743 90.6298 19.2035 89.1165 24.0777C87.5987 28.9664 87.4436 34.669 90.817 40.0224L91.4685 39.6119L92.1199 39.2014C89.0533 34.3348 89.1607 29.1291 90.5873 24.5343C92.0183 19.9249 94.7617 15.9954 96.8397 13.8043L96.281 13.2744ZM91.4685 39.6119L92.017 40.1522C95.9522 36.1569 102.487 25.1266 96.9825 12.9571L96.281 13.2744L95.5794 13.5918C100.714 24.9422 94.6261 35.3086 90.9199 39.0716L91.4685 39.6119ZM57.7812 74.0869L57.9965 73.3476C55.8979 72.7367 53.0769 70.8599 51.6053 67.1897C50.1367 63.5271 49.9662 57.9579 53.4143 49.8895L52.7062 49.5869L51.9982 49.2843C48.4462 57.5959 48.5091 63.6059 50.1759 67.7629C51.8397 71.9123 55.0561 74.0955 57.566 74.8262L57.7812 74.0869ZM57.7812 74.0869L58.531 74.2622C59.3315 70.8377 60.037 65.4819 59.5405 60.52C59.0494 55.6111 57.3436 50.7753 53.0148 48.8815L52.7062 49.5869L52.3976 50.2924C55.9089 51.8285 57.528 55.874 58.0082 60.6733C58.483 65.4194 57.8059 70.5986 57.0314 73.9116L57.7812 74.0869ZM65.6562 93.8619L66.4174 93.7461C66.2429 92.5989 66.0698 91.2713 65.9188 89.8412L65.1531 89.9221L64.3873 90.003C64.5407 91.4555 64.7168 92.8064 64.8949 93.9777L65.6562 93.8619ZM65.1531 89.9221L65.9188 89.8412C65.4935 85.8139 65.2486 81.021 65.6246 77.1671C65.8131 75.2342 66.1531 73.5939 66.671 72.4159C67.1938 71.2268 67.818 70.6734 68.497 70.5586L68.3687 69.7994L68.2403 69.0402C66.8099 69.282 65.8705 70.4102 65.2613 71.7961C64.6472 73.1929 64.2866 75.0209 64.0918 77.0175C63.7011 81.0229 63.9577 85.9347 64.3873 90.003L65.1531 89.9221ZM68.3687 69.7994L67.6385 70.0439C68.7695 73.4214 69.7464 82.1075 64.5248 89.4769L65.1531 89.9221L65.7813 90.3673C71.3748 82.473 70.3303 73.2327 69.0988 69.5549L68.3687 69.7994ZM49.3813 83.9746L49.3665 84.7445C53.4029 84.8221 61.6482 87.3238 64.4479 96.3818L65.1836 96.1544L65.9192 95.927C62.8532 86.0074 53.8237 83.2899 49.3962 83.2048L49.3813 83.9746ZM65.1836 96.1544L64.4479 96.3818C64.6597 97.0671 64.8411 97.7914 64.9876 98.5568L65.7438 98.4121L66.5001 98.2674C66.3432 97.4475 66.1482 96.6679 65.9192 95.927L65.1836 96.1544ZM49.3813 83.9746L48.827 84.509C50.4802 86.2241 53.2554 88.8908 56.2248 91.3336C59.1674 93.7544 62.3969 96.0371 64.9401 96.8849L65.1836 96.1544L65.4271 95.4239C63.182 94.6755 60.1465 92.5657 57.2032 90.1444C54.2866 87.745 51.5548 85.1199 49.9357 83.4402L49.3813 83.9746ZM54.2811 118.449L53.6606 117.993C50.7337 121.976 46.5048 132.381 53.2103 142.075L53.8436 141.637L54.4768 141.199C48.3023 132.273 52.1701 122.622 54.9015 118.905L54.2811 118.449ZM53.8436 141.637L54.5748 141.878C55.5364 138.964 56.7113 134.297 57.1151 129.741C57.317 127.463 57.3287 125.185 57.0119 123.154C56.6963 121.131 56.0439 119.283 54.8584 117.94L54.2811 118.449L53.7037 118.959C54.618 119.995 55.1979 121.517 55.4903 123.391C55.7813 125.256 55.7766 127.4 55.5811 129.605C55.1902 134.016 54.0465 138.564 53.1123 141.395L53.8436 141.637ZM19.7185 77.5869L18.9542 77.4933C18.5795 80.5505 18.6236 85.3834 19.9746 90.009C21.326 94.6359 24.0216 99.1643 29.0307 101.391L29.3435 100.687L29.6562 99.9833C25.2153 98.0096 22.7338 93.963 21.4529 89.5773C20.1716 85.1904 20.1282 80.5734 20.4827 77.6806L19.7185 77.5869ZM19.7185 77.5869L19.2665 78.2104C21.9638 80.1655 25.666 83.6426 28.0052 87.6871C30.3426 91.7287 31.2415 96.1775 28.6896 100.28L29.3435 100.687L29.9973 101.094C32.9751 96.3063 31.8177 91.2031 29.3383 86.9161C26.8606 82.632 22.9855 79.0041 20.1704 76.9635L19.7185 77.5869ZM56.2063 164.999L56.6998 164.408C54.9631 162.959 51.9964 161.054 48.693 160.029C45.3937 159.005 41.6206 158.821 38.4403 161.043L38.8813 161.674L39.3224 162.306C41.9521 160.468 45.1644 160.546 48.2365 161.5C51.3046 162.452 54.0954 164.24 55.7129 165.591L56.2063 164.999ZM38.8813 161.674L38.4054 162.28C39.9759 163.515 42.7316 165.148 45.9609 166.091C49.191 167.034 52.9744 167.307 56.5239 165.701L56.2063 164.999L55.8888 164.298C52.7883 165.701 49.4113 165.494 46.3925 164.612C43.3728 163.731 40.791 162.197 39.3573 161.069L38.8813 161.674ZM31.0885 143.861L31.1904 143.098C27.2035 142.566 22.6429 141.452 18.9405 139.469C15.2378 137.485 12.5032 134.696 11.9044 130.843L11.1436 130.961L10.3827 131.079C11.0851 135.599 14.2869 138.722 18.2133 140.826C22.14 142.93 26.9014 144.079 30.9867 144.625L31.0885 143.861ZM11.1436 130.961L11.2069 131.729C14.3282 131.471 19.034 131.796 22.9948 133.569C26.9156 135.325 30.055 138.464 30.3195 143.899L31.0885 143.861L31.8576 143.824C31.5581 137.669 27.9316 134.093 23.6243 132.164C19.3569 130.253 14.3722 129.922 11.0802 130.194L11.1436 130.961Z" fill="black"/>
</g>
<defs>
<clipPath id="clip0_137_805">
<rect width="200" height="200" fill="white"/>
</clipPath>
</defs>
</svg>
